<svg xmlns="http://www.w3.org/2000/svg" version="1.0" width="1024.000000pt" height="1024.000000pt" viewBox="0 0 1024.000000 1024.000000" preserveAspectRatio="xMidYMid meet">

<g transform="translate(0.000000,1024.000000) scale(0.100000,-0.100000)" fill="#0095da" stroke="none">
<path d="M0 5120 l0 -5120 5120 0 5120 0 0 5120 0 5120 -5120 0 -5120 0 0 -5120z m5245 1430 l0 -995 -108 -265 c-128 -312 -607 -1485 -700 -1715 l-66 -160 -1070 -3 -1071 -2 0 -360 0 -360 -400 0 -400 0 0 745 0 745 245 0 245 0 0 1680 0 1680 293 3 c160 1 909 2 1662 2 l1370 0 0 -995z m2404 928 c20 -62 173 -558 293 -948 118 -386 397 -1280 558 -1790 332 -1048 431 -1363 526 -1669 57 -184 106 -347 109 -363 l7 -28 -468 2 -467 3 -44 145 c-68 224 -319 1044 -349 1142 l-27 88 -787 2 -787 3 145 378 145 377 533 0 533 0 -19 58 c-10 31 -76 248 -145 482 -140 470 -294 967 -387 1249 l-61 184 -48 -124 c-268 -698 -497 -1280 -1030 -2614 -138 -346 -253 -636 -256 -642 -4 -10 124 -13 621 -13 l626 0 0 -112 c0 -62 3 -224 7 -360 l6 -248 -1241 0 c-683 0 -1242 2 -1242 4 0 8 350 875 577 1431 124 303 328 809 453 1125 126 316 321 805 435 1085 113 281 270 669 348 862 l142 353 637 0 636 0 21 -62z"/>
<path d="M2810 5465 l0 -1295 780 0 780 0 0 1295 0 1295 -780 0 -780 0 0 -1295z"/>
</g>
</svg>